<svg width="1851" height="1470" xmlns="http://www.w3.org/2000/svg" xmlns:xlink="http://www.w3.org/1999/xlink" xml:space="preserve" overflow="hidden"><defs><clipPath id="clip0"><rect x="221" y="1781" width="1851" height="1470"/></clipPath></defs><g clip-path="url(#clip0)" transform="translate(-221 -1781)"><rect x="221" y="1781" width="1851" height="1470" fill="#FFFFFF"/><g><path d="M703.523 1972.5 703.523 3065.5M895.53 1972.5 895.53 3065.5M1088.54 1972.5 1088.54 3065.5M1281.54 1972.5 1281.54 3065.5M1474.55 1972.5 1474.55 3065.5M1666.5 1972.5 1666.5 3065.5" stroke="#D9D9D9" stroke-width="3.4375" stroke-linejoin="round" stroke-miterlimit="10" fill="none"/></g><g><path d="M1129.04 3018.1 1008.03 3018.1 1008.03 2956.1 1129.04 2956.1ZM781.026 2862.09 675.022 2862.09 675.022 2800.09 781.026 2800.09ZM1328.04 2706.09 1136.04 2706.09 1136.04 2644.09 1328.04 2644.09ZM1082.04 2550.08 928.03 2550.08 928.03 2488.08 1082.04 2488.08ZM1218.04 2394.08 1042.03 2394.08 1042.03 2332.08 1218.04 2332.08ZM877.029 2238.07 723.024 2238.07 723.024 2176.07 877.029 2176.07ZM1336.04 2082.07 1098.04 2082.07 1098.04 2019.07 1336.04 2019.07Z" fill="#4371C5"/></g><g><path d="M1252.04 3018.1 1129.04 3018.1 1129.04 2956.1 1252.04 2956.1ZM886.029 2862.09 781.026 2862.09 781.026 2800.09 886.029 2800.09ZM1513.05 2706.09 1328.04 2706.09 1328.04 2644.09 1513.05 2644.09ZM1231.04 2550.08 1082.04 2550.08 1082.04 2488.08 1231.04 2488.08ZM1494.05 2394.08 1218.04 2394.08 1218.04 2332.08 1494.05 2332.08ZM1045.03 2238.07 877.029 2238.07 877.029 2176.07 1045.03 2176.07ZM1588.05 2082.07 1336.04 2082.07 1336.04 2019.07 1588.05 2019.07Z" fill="#FFD966"/></g><g><path d="M0 0 0.000360892 1093" stroke="#D9D9D9" stroke-width="3.4375" stroke-linejoin="round" stroke-miterlimit="10" fill="none" fill-rule="evenodd" transform="matrix(1 0 0 -1 510.5 3065.5)"/></g><g><path d="M805.5 1972.5C805.5 2336.83 805.5 2883.33 805.5 3065.5 805.5 3065.5 805.5 3065.5 805.5 3065.5 805.5 3065.5 805.5 3065.5 805.5 3065.5" stroke="#C00000" stroke-width="9.16667" stroke-linecap="round" stroke-linejoin="round" stroke-miterlimit="10" stroke-dasharray="27.5 36.6667" fill="none"/></g><g><text fill="#595959" font-family="Calibri,Calibri_MSFontService,sans-serif" font-weight="400" font-size="48" transform="matrix(1 0 0 1 473.843 3142)">$20</text></g><g><text fill="#595959" font-family="Calibri,Calibri_MSFontService,sans-serif" font-weight="400" font-size="48" transform="matrix(1 0 0 1 666.572 3142)">$30</text></g><g><text fill="#595959" font-family="Calibri,Calibri_MSFontService,sans-serif" font-weight="400" font-size="48" transform="matrix(1 0 0 1 859.302 3142)">$40</text></g><g><text fill="#595959" font-family="Calibri,Calibri_MSFontService,sans-serif" font-weight="400" font-size="48" transform="matrix(1 0 0 1 1052.03 3142)">$50</text></g><g><text fill="#595959" font-family="Calibri,Calibri_MSFontService,sans-serif" font-weight="400" font-size="48" transform="matrix(1 0 0 1 1244.76 3142)">$60</text></g><g><text fill="#595959" font-family="Calibri,Calibri_MSFontService,sans-serif" font-weight="400" font-size="48" transform="matrix(1 0 0 1 1437.49 3142)">$70</text></g><g><text fill="#595959" font-family="Calibri,Calibri_MSFontService,sans-serif" font-weight="400" font-size="48" transform="matrix(1 0 0 1 1630.22 3142)">$80</text></g><g><text fill="#595959" font-family="Calibri,Calibri_MSFontService,sans-serif" font-weight="700" font-size="48" transform="matrix(1 0 0 1 232.95 2972)">DCF market</text></g><g><text fill="#595959" font-family="Calibri,Calibri_MSFontService,sans-serif" font-weight="700" font-size="48" transform="matrix(1 0 0 1 295.524 3031)">Wacc</text></g><g><text fill="#595959" font-family="Calibri,Calibri_MSFontService,sans-serif" font-weight="700" font-size="48" transform="matrix(1 0 0 1 284.902 2816)">DCF Bear</text></g><g><text fill="#595959" font-family="Calibri,Calibri_MSFontService,sans-serif" font-weight="700" font-size="48" transform="matrix(1 0 0 1 328.993 2875)">Case</text></g><g><text fill="#595959" font-family="Calibri,Calibri_MSFontService,sans-serif" font-weight="700" font-size="48" transform="matrix(1 0 0 1 300.508 2660)">DCF Bull</text></g><g><text fill="#595959" font-family="Calibri,Calibri_MSFontService,sans-serif" font-weight="700" font-size="48" transform="matrix(1 0 0 1 336.797 2718)">Case</text></g><g><text fill="#595959" font-family="Calibri,Calibri_MSFontService,sans-serif" font-weight="700" font-size="48" transform="matrix(1 0 0 1 282.793 2504)">DCF Base</text></g><g><text fill="#595959" font-family="Calibri,Calibri_MSFontService,sans-serif" font-weight="700" font-size="48" transform="matrix(1 0 0 1 327.939 2562)">Case</text></g><g><text fill="#595959" font-family="Calibri,Calibri_MSFontService,sans-serif" font-weight="700" font-size="48" transform="matrix(1 0 0 1 246.54 2377)">EV/EBITDA</text></g><g><text fill="#595959" font-family="Calibri,Calibri_MSFontService,sans-serif" font-weight="700" font-size="48" transform="matrix(1 0 0 1 301.402 2221)">EV/FCFF</text></g><g><text fill="#595959" font-family="Calibri,Calibri_MSFontService,sans-serif" font-weight="700" font-size="48" transform="matrix(1 0 0 1 389.586 2065)">PER</text></g><g><text fill="#595959" font-family="Calibri,Calibri_MSFontService,sans-serif" font-weight="700" font-size="64" transform="matrix(1 0 0 1 1028.62 1884)">Implied share price</text></g><g><rect x="1701" y="2474" width="116" height="26.0002" fill="#4371C5"/></g><g><text fill="#595959" font-family="Calibri,Calibri_MSFontService,sans-serif" font-weight="400" font-size="48" transform="matrix(1 0 0 1 1829.55 2501)">25th to</text></g><g><text fill="#595959" font-family="Calibri,Calibri_MSFontService,sans-serif" font-weight="400" font-size="48" transform="matrix(1 0 0 1 1829.55 2560)">Median</text></g><g><rect x="1701" y="2586" width="116" height="26.0002" fill="#FFD966"/></g><g><text fill="#595959" font-family="Calibri,Calibri_MSFontService,sans-serif" font-weight="400" font-size="48" transform="matrix(1 0 0 1 1829.55 2613)">Median to</text></g><g><text fill="#595959" font-family="Calibri,Calibri_MSFontService,sans-serif" font-weight="400" font-size="48" transform="matrix(1 0 0 1 1829.55 2672)">75th</text></g></g></svg>